<svg xmlns="http://www.w3.org/2000/svg" xmlns:xlink="http://www.w3.org/1999/xlink" width="512" zoomAndPan="magnify" viewBox="0 0 384 383.999986" height="512" preserveAspectRatio="xMidYMid meet" version="1.0"><path fill="#f18c20" d="M 192.027344 383.945312 C 188.886719 383.945312 185.746094 383.871094 182.605469 383.714844 C 179.46875 383.5625 176.335938 383.328125 173.210938 383.023438 C 170.082031 382.714844 166.964844 382.328125 163.859375 381.867188 C 160.75 381.40625 157.65625 380.871094 154.574219 380.257812 C 151.492188 379.644531 148.429688 378.957031 145.382812 378.191406 C 142.332031 377.429688 139.304688 376.59375 136.300781 375.679688 C 133.292969 374.769531 130.3125 373.78125 127.351562 372.722656 C 124.394531 371.664062 121.464844 370.535156 118.5625 369.332031 C 115.660156 368.132812 112.789062 366.859375 109.949219 365.515625 C 107.109375 364.171875 104.300781 362.757812 101.53125 361.277344 C 98.761719 359.796875 96.027344 358.25 93.332031 356.632812 C 90.636719 355.019531 87.984375 353.339844 85.371094 351.59375 C 82.761719 349.847656 80.191406 348.039062 77.667969 346.167969 C 75.144531 344.296875 72.667969 342.363281 70.242188 340.371094 C 67.8125 338.378906 65.433594 336.324219 63.105469 334.214844 C 60.777344 332.105469 58.503906 329.941406 56.28125 327.71875 C 54.058594 325.496094 51.894531 323.222656 49.785156 320.894531 C 47.675781 318.566406 45.621094 316.1875 43.628906 313.757812 C 41.636719 311.332031 39.703125 308.855469 37.832031 306.332031 C 35.960938 303.808594 34.152344 301.238281 32.40625 298.628906 C 30.660156 296.015625 28.980469 293.363281 27.367188 290.667969 C 25.75 287.972656 24.203125 285.238281 22.722656 282.46875 C 21.242188 279.699219 19.828125 276.890625 18.484375 274.050781 C 17.140625 271.210938 15.867188 268.339844 14.667969 265.4375 C 13.464844 262.535156 12.335938 259.605469 11.277344 256.648438 C 10.21875 253.6875 9.230469 250.707031 8.320312 247.699219 C 7.40625 244.695312 6.570312 241.667969 5.808594 238.617188 C 5.042969 235.570312 4.355469 232.507812 3.742188 229.425781 C 3.128906 226.34375 2.59375 223.25 2.132812 220.140625 C 1.671875 217.035156 1.285156 213.917969 0.976562 210.789062 C 0.671875 207.664062 0.4375 204.53125 0.285156 201.394531 C 0.128906 198.253906 0.0546875 195.113281 0.0546875 191.972656 C 0.0546875 188.832031 0.128906 185.691406 0.285156 182.554688 C 0.4375 179.414062 0.671875 176.28125 0.976562 173.15625 C 1.285156 170.03125 1.671875 166.914062 2.132812 163.804688 C 2.59375 160.695312 3.128906 157.601562 3.742188 154.519531 C 4.355469 151.441406 5.042969 148.375 5.808594 145.328125 C 6.570312 142.28125 7.40625 139.253906 8.320312 136.246094 C 9.230469 133.238281 10.21875 130.257812 11.277344 127.300781 C 12.335938 124.339844 13.464844 121.410156 14.667969 118.507812 C 15.867188 115.605469 17.140625 112.734375 18.484375 109.894531 C 19.828125 107.054688 21.242188 104.25 22.722656 101.476562 C 24.203125 98.707031 25.75 95.972656 27.367188 93.277344 C 28.980469 90.585938 30.660156 87.929688 32.40625 85.320312 C 34.152344 82.707031 35.960938 80.136719 37.832031 77.613281 C 39.703125 75.089844 41.636719 72.617188 43.628906 70.1875 C 45.621094 67.757812 47.675781 65.378906 49.785156 63.050781 C 51.894531 60.722656 54.058594 58.449219 56.28125 56.226562 C 58.503906 54.007812 60.777344 51.839844 63.105469 49.730469 C 65.433594 47.621094 67.8125 45.570312 70.242188 43.574219 C 72.667969 41.582031 75.144531 39.652344 77.667969 37.777344 C 80.191406 35.90625 82.761719 34.097656 85.371094 32.351562 C 87.984375 30.609375 90.636719 28.925781 93.332031 27.3125 C 96.027344 25.695312 98.761719 24.148438 101.53125 22.667969 C 104.300781 21.1875 107.109375 19.773438 109.949219 18.429688 C 112.789062 17.089844 115.660156 15.816406 118.5625 14.613281 C 121.464844 13.410156 124.394531 12.28125 127.351562 11.222656 C 130.3125 10.164062 133.292969 9.179688 136.300781 8.265625 C 139.304688 7.355469 142.332031 6.515625 145.382812 5.753906 C 148.429688 4.988281 151.492188 4.300781 154.574219 3.6875 C 157.65625 3.074219 160.75 2.539062 163.859375 2.078125 C 166.964844 1.617188 170.082031 1.230469 173.210938 0.925781 C 176.335938 0.617188 179.46875 0.386719 182.605469 0.230469 C 185.746094 0.078125 188.886719 0 192.027344 0 C 195.167969 0 198.308594 0.078125 201.445312 0.230469 C 204.585938 0.386719 207.71875 0.617188 210.84375 0.925781 C 213.96875 1.230469 217.085938 1.617188 220.195312 2.078125 C 223.304688 2.539062 226.398438 3.074219 229.480469 3.6875 C 232.558594 4.300781 235.625 4.988281 238.671875 5.753906 C 241.71875 6.515625 244.746094 7.355469 247.753906 8.265625 C 250.761719 9.179688 253.742188 10.164062 256.699219 11.222656 C 259.660156 12.28125 262.589844 13.410156 265.492188 14.613281 C 268.394531 15.816406 271.265625 17.089844 274.105469 18.429688 C 276.945312 19.773438 279.75 21.1875 282.523438 22.667969 C 285.292969 24.148438 288.027344 25.695312 290.722656 27.3125 C 293.414062 28.925781 296.070312 30.609375 298.679688 32.351562 C 301.292969 34.097656 303.863281 35.90625 306.386719 37.777344 C 308.910156 39.652344 311.382812 41.582031 313.8125 43.574219 C 316.242188 45.570312 318.621094 47.621094 320.949219 49.730469 C 323.277344 51.839844 325.550781 54.007812 327.773438 56.226562 C 329.992188 58.449219 332.160156 60.722656 334.269531 63.050781 C 336.378906 65.378906 338.429688 67.757812 340.425781 70.1875 C 342.417969 72.617188 344.347656 75.089844 346.222656 77.613281 C 348.09375 80.136719 349.902344 82.707031 351.648438 85.320312 C 353.390625 87.929688 355.074219 90.585938 356.6875 93.277344 C 358.304688 95.972656 359.851562 98.707031 361.332031 101.476562 C 362.8125 104.25 364.226562 107.054688 365.570312 109.894531 C 366.910156 112.734375 368.183594 115.605469 369.386719 118.507812 C 370.589844 121.410156 371.71875 124.339844 372.777344 127.300781 C 373.835938 130.257812 374.820312 133.238281 375.734375 136.246094 C 376.644531 139.253906 377.484375 142.28125 378.246094 145.328125 C 379.011719 148.375 379.699219 151.441406 380.3125 154.519531 C 380.925781 157.601562 381.460938 160.695312 381.921875 163.804688 C 382.382812 166.914062 382.769531 170.03125 383.074219 173.15625 C 383.382812 176.28125 383.613281 179.414062 383.769531 182.554688 C 383.921875 185.691406 384 188.832031 384 191.972656 C 384 195.113281 383.921875 198.253906 383.769531 201.394531 C 383.613281 204.53125 383.382812 207.664062 383.074219 210.789062 C 382.769531 213.917969 382.382812 217.035156 381.921875 220.140625 C 381.460938 223.25 380.925781 226.34375 380.3125 229.425781 C 379.699219 232.507812 379.011719 235.570312 378.246094 238.617188 C 377.484375 241.667969 376.644531 244.695312 375.734375 247.699219 C 374.820312 250.707031 373.835938 253.6875 372.777344 256.648438 C 371.71875 259.605469 370.589844 262.535156 369.386719 265.4375 C 368.183594 268.339844 366.910156 271.210938 365.570312 274.050781 C 364.226562 276.890625 362.8125 279.699219 361.332031 282.46875 C 359.851562 285.238281 358.304688 287.972656 356.6875 290.667969 C 355.074219 293.363281 353.390625 296.015625 351.648438 298.628906 C 349.902344 301.238281 348.09375 303.808594 346.222656 306.332031 C 344.347656 308.855469 342.417969 311.332031 340.425781 313.757812 C 338.429688 316.1875 336.378906 318.566406 334.269531 320.894531 C 332.160156 323.222656 329.992188 325.496094 327.773438 327.71875 C 325.550781 329.941406 323.277344 332.105469 320.949219 334.214844 C 318.621094 336.324219 316.242188 338.378906 313.8125 340.371094 C 311.382812 342.363281 308.910156 344.296875 306.386719 346.167969 C 303.863281 348.039062 301.292969 349.847656 298.679688 351.59375 C 296.070312 353.339844 293.414062 355.019531 290.722656 356.632812 C 288.027344 358.25 285.292969 359.796875 282.523438 361.277344 C 279.75 362.757812 276.945312 364.171875 274.105469 365.515625 C 271.265625 366.859375 268.394531 368.132812 265.492188 369.332031 C 262.589844 370.535156 259.660156 371.664062 256.699219 372.722656 C 253.742188 373.78125 250.761719 374.769531 247.753906 375.679688 C 244.746094 376.59375 241.71875 377.429688 238.671875 378.191406 C 235.625 378.957031 232.558594 379.644531 229.480469 380.257812 C 226.398438 380.871094 223.304688 381.40625 220.195312 381.867188 C 217.085938 382.328125 213.96875 382.714844 210.84375 383.023438 C 207.71875 383.328125 204.585938 383.5625 201.445312 383.714844 C 198.308594 383.871094 195.167969 383.945312 192.027344 383.945312 Z M 192.027344 383.945312 " fill-opacity="1" fill-rule="nonzero"/><path fill="#ffffff" d="M 211.121094 271.292969 L 281.351562 207.230469 C 281.847656 206.730469 282.320312 206.207031 282.769531 205.660156 C 283.214844 205.113281 283.636719 204.546875 284.027344 203.960938 C 284.417969 203.371094 284.78125 202.765625 285.113281 202.140625 C 285.445312 201.519531 285.746094 200.882812 286.015625 200.226562 C 286.285156 199.574219 286.523438 198.910156 286.726562 198.234375 C 286.933594 197.558594 287.105469 196.875 287.242188 196.179688 C 287.378906 195.488281 287.484375 194.789062 287.550781 194.085938 C 287.621094 193.382812 287.65625 192.679688 287.65625 191.972656 C 287.65625 191.265625 287.621094 190.5625 287.550781 189.859375 C 287.484375 189.15625 287.378906 188.457031 287.242188 187.765625 C 287.105469 187.074219 286.933594 186.386719 286.726562 185.710938 C 286.523438 185.035156 286.285156 184.371094 286.015625 183.71875 C 285.746094 183.066406 285.445312 182.425781 285.113281 181.804688 C 284.78125 181.179688 284.417969 180.574219 284.027344 179.988281 C 283.636719 179.398438 283.214844 178.832031 282.769531 178.285156 C 282.320312 177.738281 281.847656 177.214844 281.351562 176.714844 L 211.121094 112.625 C 210.648438 112.195312 210.15625 111.789062 209.640625 111.410156 C 209.128906 111.027344 208.601562 110.671875 208.050781 110.34375 C 207.503906 110.011719 206.945312 109.710938 206.367188 109.4375 C 205.789062 109.164062 205.199219 108.917969 204.601562 108.699219 C 204 108.484375 203.390625 108.296875 202.769531 108.140625 C 202.152344 107.984375 201.527344 107.855469 200.894531 107.761719 C 200.261719 107.664062 199.628906 107.601562 198.988281 107.566406 C 198.351562 107.535156 197.714844 107.53125 197.074219 107.5625 C 196.4375 107.589844 195.804688 107.652344 195.171875 107.742188 C 194.539062 107.832031 193.914062 107.957031 193.292969 108.109375 C 192.671875 108.261719 192.0625 108.445312 191.457031 108.65625 C 190.855469 108.871094 190.265625 109.113281 189.6875 109.382812 C 189.109375 109.652344 188.542969 109.949219 187.996094 110.277344 C 187.445312 110.601562 186.914062 110.953125 186.398438 111.332031 C 185.882812 111.710938 185.390625 112.113281 184.914062 112.539062 C 184.4375 112.964844 183.984375 113.414062 183.554688 113.886719 C 183.125 114.359375 182.71875 114.851562 182.335938 115.363281 C 181.953125 115.875 181.597656 116.40625 181.269531 116.953125 C 180.941406 117.5 180.636719 118.0625 180.363281 118.640625 C 180.089844 119.214844 179.84375 119.804688 179.628906 120.40625 C 179.410156 121.007812 179.222656 121.617188 179.066406 122.234375 C 178.910156 122.855469 178.785156 123.480469 178.6875 124.113281 C 178.59375 124.742188 178.527344 125.378906 178.496094 126.015625 C 178.460938 126.652344 178.460938 127.292969 178.488281 127.929688 C 178.519531 128.566406 178.578125 129.203125 178.667969 129.835938 C 178.761719 130.46875 178.882812 131.09375 179.035156 131.714844 C 179.1875 132.332031 179.371094 132.945312 179.585938 133.546875 C 179.796875 134.148438 180.039062 134.738281 180.308594 135.320312 C 180.578125 135.898438 180.878906 136.460938 181.203125 137.011719 C 181.53125 137.558594 181.882812 138.09375 182.261719 138.605469 C 182.636719 139.121094 183.039062 139.617188 183.46875 140.09375 C 183.894531 140.566406 184.34375 141.019531 184.8125 141.453125 L 219.886719 173.496094 L 101.632812 173.496094 C 100.976562 173.472656 100.324219 173.480469 99.671875 173.523438 C 99.015625 173.566406 98.367188 173.636719 97.722656 173.746094 C 97.078125 173.851562 96.4375 173.992188 95.804688 174.164062 C 95.175781 174.332031 94.554688 174.535156 93.941406 174.769531 C 93.328125 175.003906 92.730469 175.265625 92.148438 175.558594 C 91.5625 175.855469 90.992188 176.175781 90.441406 176.527344 C 89.886719 176.878906 89.355469 177.253906 88.839844 177.660156 C 88.328125 178.066406 87.832031 178.492188 87.363281 178.949219 C 86.890625 179.402344 86.445312 179.878906 86.019531 180.378906 C 85.597656 180.878906 85.199219 181.394531 84.828125 181.933594 C 84.457031 182.472656 84.113281 183.03125 83.800781 183.605469 C 83.484375 184.179688 83.199219 184.765625 82.941406 185.367188 C 82.6875 185.96875 82.460938 186.585938 82.265625 187.210938 C 82.074219 187.835938 81.910156 188.46875 81.777344 189.109375 C 81.648438 189.75 81.550781 190.394531 81.484375 191.046875 C 81.417969 191.699219 81.386719 192.351562 81.386719 193.003906 C 81.386719 193.660156 81.417969 194.3125 81.484375 194.964844 C 81.550781 195.613281 81.648438 196.261719 81.777344 196.902344 C 81.910156 197.542969 82.074219 198.175781 82.265625 198.800781 C 82.460938 199.425781 82.6875 200.039062 82.941406 200.644531 C 83.199219 201.246094 83.484375 201.832031 83.800781 202.40625 C 84.113281 202.980469 84.457031 203.535156 84.828125 204.074219 C 85.199219 204.613281 85.597656 205.132812 86.019531 205.632812 C 86.445312 206.132812 86.890625 206.609375 87.363281 207.0625 C 87.832031 207.515625 88.328125 207.945312 88.839844 208.351562 C 89.355469 208.753906 89.886719 209.132812 90.441406 209.484375 C 90.992188 209.835938 91.5625 210.15625 92.148438 210.449219 C 92.730469 210.746094 93.328125 211.007812 93.941406 211.242188 C 94.554688 211.476562 95.175781 211.679688 95.804688 211.847656 C 96.4375 212.019531 97.078125 212.160156 97.722656 212.265625 C 98.367188 212.371094 99.015625 212.445312 99.671875 212.488281 C 100.324219 212.53125 100.976562 212.539062 101.632812 212.515625 L 217.742188 212.515625 L 184.8125 242.441406 C 184.339844 242.871094 183.890625 243.324219 183.460938 243.800781 C 183.035156 244.273438 182.632812 244.769531 182.25 245.285156 C 181.871094 245.796875 181.519531 246.332031 181.191406 246.878906 C 180.863281 247.429688 180.566406 247.992188 180.292969 248.570312 C 180.023438 249.152344 179.78125 249.742188 179.566406 250.34375 C 179.351562 250.945312 179.167969 251.558594 179.015625 252.179688 C 178.863281 252.800781 178.738281 253.425781 178.648438 254.058594 C 178.554688 254.691406 178.492188 255.328125 178.464844 255.964844 C 178.433594 256.605469 178.4375 257.242188 178.46875 257.882812 C 178.503906 258.519531 178.566406 259.15625 178.664062 259.789062 C 178.757812 260.421875 178.886719 261.046875 179.042969 261.667969 C 179.199219 262.285156 179.386719 262.898438 179.605469 263.496094 C 179.820312 264.097656 180.066406 264.6875 180.34375 265.265625 C 180.617188 265.84375 180.921875 266.40625 181.25 266.953125 C 181.582031 267.5 181.9375 268.03125 182.320312 268.542969 C 182.703125 269.054688 183.109375 269.546875 183.539062 270.019531 C 183.96875 270.492188 184.421875 270.941406 184.898438 271.371094 C 185.375 271.800781 185.867188 272.203125 186.382812 272.582031 C 186.898438 272.960938 187.429688 273.316406 187.980469 273.640625 C 188.527344 273.96875 189.09375 274.269531 189.671875 274.539062 C 190.25 274.8125 190.839844 275.054688 191.445312 275.269531 C 192.046875 275.480469 192.65625 275.664062 193.277344 275.820312 C 193.898438 275.972656 194.527344 276.09375 195.160156 276.1875 C 195.792969 276.277344 196.425781 276.339844 197.066406 276.367188 C 197.703125 276.398438 198.34375 276.398438 198.980469 276.363281 C 199.621094 276.332031 200.253906 276.265625 200.886719 276.171875 C 201.519531 276.074219 202.144531 275.949219 202.765625 275.789062 C 203.386719 275.632812 203.996094 275.445312 204.597656 275.230469 C 205.199219 275.011719 205.789062 274.765625 206.367188 274.492188 C 206.941406 274.214844 207.503906 273.914062 208.050781 273.582031 C 208.601562 273.253906 209.128906 272.894531 209.640625 272.511719 C 210.15625 272.132812 210.648438 271.726562 211.121094 271.292969 Z M 211.121094 271.292969 " fill-opacity="1" fill-rule="nonzero"/></svg>